<?xml version="1.0" encoding="UTF-8"?>
<svg xmlns="http://www.w3.org/2000/svg" xmlns:xlink="http://www.w3.org/1999/xlink" width="32px" height="32px" viewBox="0 0 32 32" version="1.1">
    <g id="surface1">
        <path style=" stroke:none;fill-rule:nonzero;fill:rgb(0%,0%,0%);fill-opacity:1;" d="M 0 15.957031 L 0 31.917969 L 31.917969 31.917969 L 31.917969 0 L 0 0 Z M 13.058594 14.195312 L 7.566406 19.6875 L 13.886719 19.730469 L 20.207031 19.792969 L 20.269531 20.457031 L 20.332031 21.140625 L 12.351562 21.140625 C 7.957031 21.140625 4.351562 21.097656 4.351562 21.058594 C 4.351562 20.996094 6.757812 18.550781 9.699219 15.605469 L 15.027344 10.257812 L 11.710938 10.15625 L 8.394531 10.050781 L 8.332031 9.367188 L 8.269531 8.703125 L 18.550781 8.703125 Z M 22.382812 15.480469 C 24.144531 17.96875 26.488281 21.285156 27.605469 22.839844 C 28.726562 24.414062 29.636719 25.742188 29.636719 25.804688 C 29.636719 25.867188 29.285156 25.90625 28.851562 25.90625 C 28.0625 25.90625 28.019531 25.867188 26.113281 23.171875 C 25.035156 21.65625 23.171875 19.003906 21.949219 17.304688 C 20.746094 15.585938 19.605469 13.988281 19.460938 13.71875 C 19.296875 13.472656 19.066406 13.285156 18.941406 13.304688 C 18.820312 13.347656 17.867188 14.320312 16.808594 15.480469 C 14.984375 17.472656 14.839844 17.574219 13.96875 17.65625 C 13.472656 17.699219 13.058594 17.679688 13.058594 17.617188 C 13.058594 17.554688 14.195312 16.269531 15.605469 14.734375 C 16.996094 13.222656 18.300781 11.75 18.507812 11.480469 C 18.714844 11.210938 18.964844 10.984375 19.046875 10.984375 C 19.128906 10.984375 20.621094 13.015625 22.382812 15.480469 Z M 22.382812 15.480469 "/>
    </g>
</svg>
